<?xml version="1.0" standalone="no"?>
<!DOCTYPE svg PUBLIC "-//W3C//DTD SVG 20010904//EN"
 "http://www.w3.org/TR/2001/REC-SVG-20010904/DTD/svg10.dtd">
<svg version="1.0" xmlns="http://www.w3.org/2000/svg"
 width="520.000000pt" height="520.000000pt" viewBox="0 0 520.000000 520.000000"
 preserveAspectRatio="xMidYMid meet">
<metadata>
Created by potrace 1.11, written by Peter Selinger 2001-2013
</metadata>
<g transform="translate(0.000000,520.000000) scale(0.100000,-0.100000)"
fill="#000000" stroke="none">
<path d="M1710 4654 c-25 -7 -60 -13 -78 -13 -18 -1 -41 -5 -50 -10 -9 -5 -34
-12 -54 -15 -21 -3 -58 -15 -82 -27 -25 -11 -64 -22 -88 -23 -47 -3 -98 -20
-98 -34 0 -5 -30 -24 -67 -43 -66 -32 -106 -68 -236 -210 -27 -29 -55 -66 -64
-83 -9 -16 -22 -37 -30 -45 -29 -29 -33 -67 -33 -339 0 -267 1 -280 24 -342
37 -103 53 -138 79 -172 28 -37 87 -152 87 -168 0 -7 37 -64 82 -128 44 -64
92 -141 105 -170 25 -52 46 -72 80 -72 10 0 28 -11 41 -25 16 -17 33 -24 55
-23 18 1 48 -7 67 -17 33 -17 56 -20 265 -30 50 -2 137 -7 195 -11 58 -3 134
-7 168 -8 l64 -1 -7 -135 c-4 -73 -11 -148 -16 -164 -25 -85 -4 -216 44 -288
18 -26 18 -46 8 -450 -10 -393 -16 -937 -11 -1018 1 -19 -1 -78 -5 -131 -9
-107 -1 -121 52 -94 15 7 46 16 68 18 22 3 55 10 73 17 30 11 33 16 29 44 -2
17 -9 45 -15 61 -23 66 -31 130 -22 175 14 68 12 141 -6 217 -9 37 -17 75 -19
83 -2 8 -14 42 -25 75 -21 56 -22 67 -11 171 6 60 11 177 11 260 0 164 23 393
42 427 19 32 14 320 -6 417 -9 41 -16 87 -16 102 0 15 -8 49 -17 75 -17 49
-23 169 -26 548 -1 209 11 1010 18 1100 3 39 1 118 -4 176 -7 86 -13 113 -34
146 -26 41 -81 93 -98 93 -6 0 -25 11 -42 24 -18 14 -64 36 -102 50 -57 20
-87 24 -160 23 -49 -1 -110 -7 -135 -13z m340 -166 c49 -15 57 -30 59 -108 1
-25 5 -60 10 -77 16 -54 16 -1149 0 -1275 -13 -108 -13 -108 -40 -108 -15 0
-64 -7 -110 -16 -73 -14 -171 -23 -299 -26 -46 -1 -110 9 -146 23 -16 6 -40
13 -54 16 -81 15 -260 121 -260 154 0 6 -16 33 -35 62 -19 28 -35 55 -35 58 0
4 -18 38 -40 77 -22 38 -40 81 -40 96 0 14 -9 45 -19 69 -51 110 -64 173 -58
291 9 164 25 272 49 330 22 50 143 228 160 235 5 1 20 14 33 27 13 13 27 24
31 24 8 0 127 71 134 80 3 4 39 12 80 19 41 8 87 20 102 27 30 15 55 20 158
30 36 3 66 7 67 7 8 8 218 -5 253 -15z m177 -110 c-3 -8 -6 -5 -6 6 -1 11 2
17 5 13 3 -3 4 -12 1 -19z m-40 -580 c-2 -24 -4 -7 -4 37 0 44 2 63 4 43 2
-21 2 -57 0 -80z m93 -3344 c0 -8 -6 -14 -14 -14 -9 0 -12 7 -9 20 6 22 23 18
23 -6z"/>
<path d="M3156 4643 c-1 -2 -52 -4 -112 -5 -101 -1 -169 -12 -252 -39 -32 -11
-34 -13 -29 -53 2 -22 12 -66 21 -96 14 -47 16 -96 12 -335 -2 -154 -7 -291
-12 -305 -4 -14 -9 -162 -11 -330 -2 -239 0 -319 11 -370 8 -36 18 -90 21
-120 3 -30 8 -71 10 -90 6 -58 17 -553 16 -740 -2 -258 -2 -281 5 -570 5 -228
-3 -475 -20 -610 -10 -76 -8 -532 2 -542 7 -7 16 -7 28 0 13 7 24 6 40 -5 39
-25 61 -9 68 50 20 185 25 662 11 1119 -7 252 -6 284 10 344 19 70 19 96 -1
685 l-7 186 49 11 c27 7 81 16 119 21 177 25 285 52 285 71 0 5 105 58 130 65
8 2 42 16 68 26 13 5 40 12 60 15 52 8 167 78 242 146 29 27 142 157 172 200
17 24 35 44 39 46 12 5 28 70 34 138 3 32 9 77 14 99 6 22 13 54 17 70 20 88
5 394 -25 481 -12 37 -16 63 -10 68 17 18 9 42 -21 64 -16 13 -30 31 -30 42 0
11 -7 35 -17 54 -13 28 -27 39 -77 57 -34 13 -85 35 -114 51 -29 15 -64 28
-77 28 -14 0 -65 8 -113 19 -127 27 -207 39 -297 47 -91 8 -253 12 -259 7z
m354 -137 c30 -8 87 -17 125 -21 117 -9 159 -16 192 -32 32 -15 103 -80 103
-95 0 -4 13 -22 28 -40 71 -84 108 -224 98 -378 -4 -57 -8 -106 -10 -109 -2
-3 -7 -30 -11 -59 -9 -72 -31 -154 -55 -207 -11 -24 -20 -50 -20 -58 0 -19
-57 -97 -71 -97 -6 0 -29 -13 -52 -28 -58 -39 -189 -102 -213 -102 -11 0 -51
-15 -90 -34 -39 -18 -86 -37 -105 -41 -19 -4 -39 -12 -46 -17 -12 -10 -106
-47 -137 -53 -10 -2 -23 -8 -30 -13 -14 -11 -50 -21 -97 -28 -20 -2 -67 -13
-104 -23 -47 -13 -68 -15 -71 -7 -14 41 -31 140 -28 168 21 194 25 308 18 553
-5 209 -4 288 6 335 11 50 11 75 0 133 -16 90 -16 92 -29 147 -6 25 -11 50
-11 56 0 13 95 39 175 49 28 4 68 10 90 15 58 13 281 4 345 -14z m266 -1381
c-11 -8 -24 -15 -30 -15 -5 0 -1 7 10 15 10 8 24 14 29 14 6 0 1 -6 -9 -14z
m-629 -151 c-3 -3 -12 -4 -19 -1 -8 3 -5 6 6 6 11 1 17 -2 13 -5z m-250 -71
c-3 -10 -5 -4 -5 12 0 17 2 24 5 18 2 -7 2 -21 0 -30z m40 -700 c-2 -21 -4 -6
-4 32 0 39 2 55 4 38 2 -18 2 -50 0 -70z m-47 -282 c0 -17 -4 -33 -10 -36 -5
-3 -9 9 -8 30 2 42 18 48 18 6z m37 -733 c-3 -8 -6 -5 -6 6 -1 11 2 17 5 13 3
-3 4 -12 1 -19z"/>
</g>
</svg>
